<svg width="40" height="40" viewBox="0 0 40 40" fill="none" xmlns="http://www.w3.org/2000/svg">
<path d="M23.6113 33.3333V30.5554H28.6113C29.1574 30.5554 29.6179 30.3692 29.9929 29.9967C30.3679 29.6239 30.5554 29.1621 30.5554 28.6113V24.7221C30.5554 23.6851 30.8657 22.7546 31.4863 21.9304C32.1065 21.1065 32.9074 20.5325 33.8888 20.2083V19.7917C32.9074 19.4861 32.1065 18.9167 31.4863 18.0833C30.8657 17.25 30.5554 16.3149 30.5554 15.2779V11.3888C30.5554 10.8379 30.3692 10.3761 29.9967 10.0033C29.6239 9.63084 29.1621 9.44459 28.6113 9.44459H23.6113V6.66667H28.6113C29.926 6.66667 31.0417 7.12584 31.9583 8.04417C32.875 8.96223 33.3333 10.0771 33.3333 11.3888V15.2779C33.3333 15.8288 33.5197 16.2906 33.8925 16.6633C34.265 17.0358 34.7268 17.2221 35.2779 17.2221H36.6667V22.7779H35.2779C34.7268 22.7779 34.265 22.9642 33.8925 23.3367C33.5197 23.7094 33.3333 24.1713 33.3333 24.7221V28.6113C33.3333 29.9229 32.8742 31.0378 31.9558 31.9558C31.0378 32.8742 29.9229 33.3333 28.6113 33.3333H23.6113ZM11.3888 33.3333C10.074 33.3333 8.95834 32.8742 8.04168 31.9558C7.12501 31.0378 6.66668 29.9229 6.66668 28.6113V24.7221C6.66668 24.1713 6.48029 23.7094 6.10751 23.3367C5.73501 22.9642 5.2732 22.7779 4.72209 22.7779H3.33334V17.2221H4.72209C5.2732 17.2221 5.73501 17.0358 6.10751 16.6633C6.48029 16.2906 6.66668 15.8288 6.66668 15.2779V11.3888C6.66668 10.0771 7.12584 8.96223 8.04418 8.04417C8.96223 7.12584 10.0771 6.66667 11.3888 6.66667H16.3888V9.44459H11.3888C10.8426 9.44459 10.3821 9.63084 10.0071 10.0033C9.63209 10.3761 9.44459 10.8379 9.44459 11.3888V15.2779C9.44459 16.3149 9.13432 17.25 8.51376 18.0833C7.89348 18.9167 7.09265 19.4861 6.11126 19.7917V20.2083C7.09265 20.5325 7.89348 21.1065 8.51376 21.9304C9.13432 22.7546 9.44459 23.6851 9.44459 24.7221V28.6113C9.44459 29.1621 9.63084 29.6239 10.0033 29.9967C10.3761 30.3692 10.8379 30.5554 11.3888 30.5554H16.3888V33.3333H11.3888Z" fill="url(#paint0_linear_2_231)"/>
<defs>
<linearGradient id="paint0_linear_2_231" x1="20" y1="6.66667" x2="20" y2="33.3333" gradientUnits="userSpaceOnUse">
<stop stop-color="#F44336"/>
<stop offset="1" stop-color="#92170E"/>
</linearGradient>
</defs>
</svg>
