<svg width="121" height="141" viewBox="0 0 121 141" fill="none" xmlns="http://www.w3.org/2000/svg">
<path d="M10.293 141C7.09297 141 4.6263 140.133 2.89297 138.4C1.15964 136.667 0.292969 134.2 0.292969 131V10C0.292969 6.8 1.15964 4.33334 2.89297 2.6C4.6263 0.866667 7.09297 0 10.293 0H48.893C71.9596 0 89.693 6.06667 102.093 18.2C114.626 30.2 120.893 47.6 120.893 70.4C120.893 81.7333 119.293 91.8 116.093 100.6C112.893 109.4 108.226 116.8 102.093 122.8C95.9596 128.667 88.4263 133.2 79.493 136.4C70.693 139.467 60.493 141 48.893 141H10.293ZM18.893 125.2H47.693C56.7596 125.2 64.6263 124.067 71.293 121.8C77.9596 119.533 83.493 116.133 87.893 111.6C92.4263 107.067 95.8263 101.4 98.093 94.6C100.36 87.6667 101.493 79.6 101.493 70.4C101.493 52.1333 96.9596 38.4667 87.893 29.4C78.9596 20.3333 65.5596 15.8 47.693 15.8H18.893V125.2Z" fill="#F44336"/>
</svg>
