<svg width="26" height="26" viewBox="0 0 26 26" fill="none" xmlns="http://www.w3.org/2000/svg">
<path d="M26 9.55758C25.9933 7.9133 25.3874 6.32038 24.2824 5.04221C24.6575 3.58087 24.5405 2.04669 23.9473 0.650096C23.8896 0.517382 23.8011 0.398301 23.6883 0.30143C23.5755 0.204559 23.4412 0.132307 23.295 0.0898767C22.8761 -0.0445758 21.2902 -0.296675 18.0585 1.66409C16.6686 1.32072 15.2348 1.15859 13.7975 1.1823C12.3583 1.15829 10.9224 1.32042 9.53056 1.66409C6.21513 -0.341492 4.49159 -0.0165652 4.14448 0.078672C3.99747 0.122998 3.86275 0.197216 3.74997 0.296006C3.6372 0.394797 3.54916 0.515714 3.49217 0.650096C2.89753 2.04215 2.77631 3.57207 3.14506 5.03101C2.00396 6.30277 1.39566 7.9195 1.43349 9.57998C1.43349 15.776 5.2217 17.6471 8.69273 18.3082C8.51456 18.7161 8.39191 19.1433 8.32767 19.5799C8.32141 19.6264 8.32141 19.6734 8.32767 19.7199V21.4342C5.16784 21.6807 4.49158 19.9496 4.42575 19.7536C4.41044 19.7079 4.39246 19.663 4.3719 19.6191C3.76158 18.4535 2.68723 17.5584 1.37963 17.1261C1.11615 17.0437 0.828476 17.0626 0.579883 17.1787C0.33129 17.2947 0.142143 17.4985 0.0540538 17.7452C-0.0340356 17.9918 -0.0138516 18.2611 0.110165 18.4938C0.234181 18.7265 0.45187 18.9036 0.715344 18.9861C1.43996 19.2311 2.04425 19.7151 2.41495 20.3474C2.83387 21.6191 4.54545 23.6303 8.3157 23.4062V25.0196C8.3157 25.2796 8.42604 25.529 8.62245 25.7129C8.81885 25.8967 9.08524 26 9.36299 26C9.64075 26 9.90714 25.8967 10.1035 25.7129C10.2999 25.529 10.4103 25.2796 10.4103 25.0196V19.7928C10.4897 19.222 10.7551 18.688 11.1703 18.2634C11.3158 18.1359 11.4191 17.9721 11.4681 17.7913C11.517 17.6105 11.5096 17.4204 11.4466 17.2435C11.3836 17.0665 11.2677 16.9102 11.1126 16.7931C10.9576 16.676 10.7699 16.603 10.5719 16.5827C6.92131 16.185 3.54603 15.0589 3.54603 9.54077C3.52176 8.87468 3.64539 8.21113 3.9091 7.59205C4.1728 6.97298 4.57085 6.41186 5.07807 5.94416C5.21447 5.80673 5.30872 5.63738 5.35085 5.45398C5.39298 5.27058 5.38144 5.07993 5.31745 4.90216C4.96489 3.94314 4.94187 2.90488 5.25162 1.933C6.53664 2.20459 7.74337 2.73404 8.78848 3.4848C8.92277 3.568 9.07538 3.62178 9.23494 3.64215C9.3945 3.66252 9.55691 3.64895 9.7101 3.60245C11.0398 3.22358 12.426 3.04766 13.8155 3.08145C15.203 3.04758 16.5873 3.22351 17.9149 3.60245C18.068 3.64936 18.2305 3.66314 18.3901 3.64277C18.5498 3.62239 18.7024 3.56838 18.8365 3.4848C19.8431 2.76281 20.9953 2.23878 22.2238 1.9442C22.5289 2.92683 22.5017 3.97377 22.146 4.94137C22.0874 5.10284 22.0753 5.27592 22.1111 5.44314C22.1468 5.61036 22.229 5.76579 22.3494 5.89374C23.3402 6.88397 23.9013 8.1842 23.9234 9.54077C23.9234 15.0477 20.3745 16.1906 16.8975 16.5827C16.6894 16.6044 16.493 16.6843 16.3341 16.8121C16.1752 16.9398 16.0612 17.1095 16.0069 17.2989C15.9526 17.4882 15.9606 17.6885 16.0298 17.8736C16.099 18.0587 16.2262 18.2199 16.3948 18.3362C16.7659 18.5995 17.1967 19.339 17.1967 20.5771V25.014C17.1967 25.274 17.3071 25.5234 17.5035 25.7073C17.6999 25.8911 17.9663 25.9944 18.244 25.9944C18.5218 25.9944 18.7882 25.8911 18.9846 25.7073C19.181 25.5234 19.2913 25.274 19.2913 25.014V20.5771C19.3023 19.7969 19.1498 19.0223 18.8425 18.297C21.6552 17.7368 26 16.0057 26 9.55758Z" fill="url(#paint0_linear_97_5)"/>
<defs>
<linearGradient id="paint0_linear_97_5" x1="13" y1="0" x2="13" y2="26" gradientUnits="userSpaceOnUse">
<stop stop-color="#F44336"/>
<stop offset="1" stop-color="#92170E"/>
</linearGradient>
</defs>
</svg>
