<svg width="26" height="26" viewBox="0 0 26 26" fill="none" xmlns="http://www.w3.org/2000/svg">
<path d="M7.64489 0C3.44851 0 0 3.44389 0 7.64489V18.3551C0 22.5515 3.44389 26 7.64489 26H18.3551C22.5515 26 26 22.5561 26 18.3551V7.64489C26 3.44851 22.5561 0 18.3551 0H7.64489ZM7.64489 2.36364H18.3551C21.2773 2.36364 23.6364 4.72266 23.6364 7.64489V18.3551C23.6364 21.2773 21.2773 23.6364 18.3551 23.6364H7.64489C4.72266 23.6364 2.36364 21.2773 2.36364 18.3551V7.64489C2.36364 4.72266 4.72266 2.36364 7.64489 2.36364ZM19.9801 4.94886C19.3846 4.94886 18.9091 5.42436 18.9091 6.01989C18.9091 6.61541 19.3846 7.09091 19.9801 7.09091C20.5756 7.09091 21.0511 6.61541 21.0511 6.01989C21.0511 5.42436 20.5756 4.94886 19.9801 4.94886ZM13 5.90909C9.09908 5.90909 5.90909 9.09908 5.90909 13C5.90909 16.9009 9.09908 20.0909 13 20.0909C16.9009 20.0909 20.0909 16.9009 20.0909 13C20.0909 9.09908 16.9009 5.90909 13 5.90909ZM13 8.27273C15.6268 8.27273 17.7273 10.3732 17.7273 13C17.7273 15.6268 15.6268 17.7273 13 17.7273C10.3732 17.7273 8.27273 15.6268 8.27273 13C8.27273 10.3732 10.3732 8.27273 13 8.27273Z" fill="url(#paint0_linear_2_129)"/>
<defs>
<linearGradient id="paint0_linear_2_129" x1="13" y1="0" x2="13" y2="26" gradientUnits="userSpaceOnUse">
<stop stop-color="#F44336"/>
<stop offset="1" stop-color="#7A1111"/>
</linearGradient>
</defs>
</svg>
