<svg width="26" height="26" viewBox="0 0 26 26" fill="none" xmlns="http://www.w3.org/2000/svg">
<path d="M2.95455 0C1.33878 0 0 1.33878 0 2.95455V23.0455C0 24.6612 1.33878 26 2.95455 26H23.0455C24.6612 26 26 24.6612 26 23.0455V2.95455C26 1.33878 24.6612 0 23.0455 0H2.95455ZM2.95455 2.36364H23.0455C23.3825 2.36364 23.6364 2.61754 23.6364 2.95455V23.0455C23.6364 23.3825 23.3825 23.6364 23.0455 23.6364H2.95455C2.61754 23.6364 2.36364 23.3825 2.36364 23.0455V2.95455C2.36364 2.61754 2.61754 2.36364 2.95455 2.36364ZM6.42614 4.39489C5.30433 4.39489 4.39489 5.30433 4.39489 6.42614C4.39489 7.54794 5.30433 8.45739 6.42614 8.45739C7.54794 8.45739 8.45739 7.54794 8.45739 6.42614C8.45739 5.30433 7.54794 4.39489 6.42614 4.39489ZM17.0994 9.78693C15.4052 9.78693 14.2788 10.7148 13.8125 11.5966H13.7386V10.0455H10.4148V21.2727H13.8864V15.733C13.8864 14.2695 14.1772 12.8523 15.9915 12.8523C17.7781 12.8523 17.8011 14.505 17.8011 15.8068V21.2727H21.2727V15.1051C21.2727 12.0859 20.631 9.78693 17.0994 9.78693ZM4.72727 10.0455V21.2727H8.2358V10.0455H4.72727Z" fill="url(#paint0_linear_2_143)"/>
<defs>
<linearGradient id="paint0_linear_2_143" x1="13" y1="0" x2="13" y2="26" gradientUnits="userSpaceOnUse">
<stop stop-color="#F44336"/>
<stop offset="1" stop-color="#7A1111"/>
</linearGradient>
</defs>
</svg>
