<svg width="574" height="615" viewBox="0 0 574 615" fill="none" xmlns="http://www.w3.org/2000/svg">
<path d="M330.04 332.072C316.112 310.612 306.009 292.82 292.012 259.317C268.344 202.727 435.959 151.592 367.998 53.3358C397.457 121.209 262.259 163.168 249.7 219.692C238.215 271.68 329.97 332.072 330.04 332.072Z" fill="#F44336" fill-opacity="0.05"/>
<path d="M333.221 230.335C330.542 263.891 364.327 281.777 365.304 306.291C366.086 326.243 345.111 342.875 345.111 342.875C345.111 342.875 383.181 335.726 395.057 305.29C408.244 271.494 369.463 248.353 373.454 221.292C377.18 195.444 457.618 147.364 457.618 147.364C457.618 147.364 339.264 154.859 333.221 230.335Z" fill="#F44336" fill-opacity="0.05"/>
<path d="M447.737 334.166C472.215 328.911 492.854 343.808 492.854 360.973C492.854 399.665 436.741 436.236 436.741 436.236C436.741 436.236 523.612 426.339 523.612 362.814C523.612 320.802 480.951 310.305 447.737 334.166ZM406.5 365.375C406.5 365.375 433.587 346.929 440.802 340.007C374.333 353.491 222.571 355.305 222.571 343.595C222.571 332.805 271.512 321.749 271.512 321.749C271.512 321.749 163.038 320.255 163.038 350.837C163.038 382.713 305.032 384.994 406.5 365.375Z" fill="#1565C0" fill-opacity="0.05"/>
<path d="M389.837 394.397C326.914 414.389 211.016 408.001 245.346 381.153C228.627 381.153 203.843 393.997 203.843 406.347C203.843 431.114 329.188 450.24 421.962 413.976L389.837 394.397Z" fill="#1565C0" fill-opacity="0.05"/>
<path d="M260.766 436.649C237.936 436.649 223.157 450.707 223.157 460.95C223.157 492.839 359.359 496.053 413.324 463.684L379.022 441.917C338.706 458.856 237.433 461.19 260.766 436.649Z" fill="#1565C0" fill-opacity="0.05"/>
<path d="M506.307 488.571C506.307 476.088 491.584 470.206 486.309 467.392C517.402 539.053 174.872 533.491 174.872 491.185C174.872 481.569 200.089 472.153 223.394 476.608L203.578 465.418C157.135 458.456 125.596 477.968 125.596 493.706C125.596 567.101 506.307 563.567 506.307 488.571Z" fill="#1565C0" fill-opacity="0.05"/>
<path d="M544.251 514.872C486.393 569.489 339.683 589.388 192.149 555.644C339.683 615.702 543.553 581.879 544.251 514.872Z" fill="#1565C0" fill-opacity="0.05"/>
</svg>
