<svg width="24" height="24" viewBox="0 0 24 24" fill="none" xmlns="http://www.w3.org/2000/svg">
<path d="M12 22C10.0667 22 8.41667 21.3167 7.05 19.95C5.68333 18.5833 5 16.9333 5 15V9C5 7.06667 5.68333 5.41667 7.05 4.05C8.41667 2.68333 10.0667 2 12 2C13.9333 2 15.5833 2.68333 16.95 4.05C18.3167 5.41667 19 7.06667 19 9V15C19 16.9333 18.3167 18.5833 16.95 19.95C15.5833 21.3167 13.9333 22 12 22ZM13 9H17C17 7.8 16.6208 6.74167 15.8625 5.825C15.1042 4.90833 14.15 4.33333 13 4.1V9ZM7 9H11V4.1C9.85 4.33333 8.89583 4.90833 8.1375 5.825C7.37917 6.74167 7 7.8 7 9ZM12 20C13.3833 20 14.5625 19.5125 15.5375 18.5375C16.5125 17.5625 17 16.3833 17 15V11H7V15C7 16.3833 7.4875 17.5625 8.4625 18.5375C9.4375 19.5125 10.6167 20 12 20Z" fill="#E8EAED"/>
</svg>
