<svg width="40" height="40" viewBox="0 0 40 40" fill="none" xmlns="http://www.w3.org/2000/svg">
<g clip-path="url(#clip0_2_222)">
<path d="M0 30V27.375C0 26.1806 0.611111 25.2083 1.83333 24.4583C3.05556 23.7083 4.66667 23.3333 6.66667 23.3333C7.02778 23.3333 7.375 23.3403 7.70833 23.3542C8.04167 23.3681 8.36111 23.4028 8.66667 23.4583C8.27778 24.0417 7.98611 24.6528 7.79167 25.2917C7.59722 25.9306 7.5 26.5972 7.5 27.2917V30H0ZM10 30V27.2917C10 26.4028 10.2431 25.5903 10.7292 24.8542C11.2153 24.1181 11.9028 23.4722 12.7917 22.9167C13.6806 22.3611 14.7431 21.9444 15.9792 21.6667C17.2153 21.3889 18.5556 21.25 20 21.25C21.4722 21.25 22.8264 21.3889 24.0625 21.6667C25.2986 21.9444 26.3611 22.3611 27.25 22.9167C28.1389 23.4722 28.8194 24.1181 29.2917 24.8542C29.7639 25.5903 30 26.4028 30 27.2917V30H10ZM32.5 30V27.2917C32.5 26.5694 32.4097 25.8889 32.2292 25.25C32.0486 24.6111 31.7778 24.0139 31.4167 23.4583C31.7222 23.4028 32.0347 23.3681 32.3542 23.3542C32.6736 23.3403 33 23.3333 33.3333 23.3333C35.3333 23.3333 36.9444 23.7014 38.1667 24.4375C39.3889 25.1736 40 26.1528 40 27.375V30H32.5ZM13.5417 26.6667H26.5C26.2222 26.1111 25.4514 25.625 24.1875 25.2083C22.9236 24.7917 21.5278 24.5833 20 24.5833C18.4722 24.5833 17.0764 24.7917 15.8125 25.2083C14.5486 25.625 13.7917 26.1111 13.5417 26.6667ZM6.66667 21.6667C5.75 21.6667 4.96528 21.3403 4.3125 20.6875C3.65972 20.0347 3.33333 19.25 3.33333 18.3333C3.33333 17.3889 3.65972 16.5972 4.3125 15.9583C4.96528 15.3194 5.75 15 6.66667 15C7.61111 15 8.40278 15.3194 9.04167 15.9583C9.68056 16.5972 10 17.3889 10 18.3333C10 19.25 9.68056 20.0347 9.04167 20.6875C8.40278 21.3403 7.61111 21.6667 6.66667 21.6667ZM33.3333 21.6667C32.4167 21.6667 31.6319 21.3403 30.9792 20.6875C30.3264 20.0347 30 19.25 30 18.3333C30 17.3889 30.3264 16.5972 30.9792 15.9583C31.6319 15.3194 32.4167 15 33.3333 15C34.2778 15 35.0694 15.3194 35.7083 15.9583C36.3472 16.5972 36.6667 17.3889 36.6667 18.3333C36.6667 19.25 36.3472 20.0347 35.7083 20.6875C35.0694 21.3403 34.2778 21.6667 33.3333 21.6667ZM20 20C18.6111 20 17.4306 19.5139 16.4583 18.5417C15.4861 17.5694 15 16.3889 15 15C15 13.5833 15.4861 12.3958 16.4583 11.4375C17.4306 10.4792 18.6111 10 20 10C21.4167 10 22.6042 10.4792 23.5625 11.4375C24.5208 12.3958 25 13.5833 25 15C25 16.3889 24.5208 17.5694 23.5625 18.5417C22.6042 19.5139 21.4167 20 20 20ZM20 16.6667C20.4722 16.6667 20.8681 16.5069 21.1875 16.1875C21.5069 15.8681 21.6667 15.4722 21.6667 15C21.6667 14.5278 21.5069 14.1319 21.1875 13.8125C20.8681 13.4931 20.4722 13.3333 20 13.3333C19.5278 13.3333 19.1319 13.4931 18.8125 13.8125C18.4931 14.1319 18.3333 14.5278 18.3333 15C18.3333 15.4722 18.4931 15.8681 18.8125 16.1875C19.1319 16.5069 19.5278 16.6667 20 16.6667Z" fill="url(#paint0_linear_2_222)"/>
</g>
<defs>
<linearGradient id="paint0_linear_2_222" x1="20" y1="10" x2="20" y2="30" gradientUnits="userSpaceOnUse">
<stop stop-color="#F44336"/>
<stop offset="1" stop-color="#92170E"/>
</linearGradient>
<clipPath id="clip0_2_222">
<rect width="40" height="40" fill="white"/>
</clipPath>
</defs>
</svg>
